{
    "asset" : {
        "generator" : "Khronos glTF Blender I/O v1.8.19",
        "version" : "2.0"
    },
    "scene" : 0,
    "scenes" : [
        {
            "name" : "Scene",
            "nodes" : [
                0
            ]
        }
    ],
    "nodes" : [
        {
            "mesh" : 0,
            "name" : "\u6d88\u9632_\u9600\u95e801"
        }
    ],
    "materials" : [
        {
            "doubleSided" : true,
            "name" : "Mat3d66-1212348-27-4882.003",
            "pbrMetallicRoughness" : {
                "baseColorFactor" : [
                    1,
                    0,
                    0,
                    1
                ],
                "metallicFactor" : 0,
                "roughnessFactor" : 0.6417322754859924
            }
        },
        {
            "doubleSided" : true,
            "name" : "blinn2.006",
            "pbrMetallicRoughness" : {
                "baseColorFactor" : [
                    0.4000000059604645,
                    0.4000000059604645,
                    0.4000000059604645,
                    1
                ],
                "metallicFactor" : 0,
                "roughnessFactor" : 0.5
            }
        },
        {
            "doubleSided" : true,
            "name" : "blinn12.017",
            "pbrMetallicRoughness" : {
                "baseColorFactor" : [
                    0,
                    0,
                    0,
                    1
                ],
                "metallicFactor" : 0,
                "roughnessFactor" : 0.6968503594398499
            }
        }
    ],
    "meshes" : [
        {
            "name" : "Obj3d66-1212348-19-75",
            "primitives" : [
                {
                    "attributes" : {
                        "POSITION" : 0,
                        "NORMAL" : 1,
                        "TEXCOORD_0" : 2
                    },
                    "indices" : 3,
                    "material" : 0
                },
                {
                    "attributes" : {
                        "POSITION" : 4,
                        "NORMAL" : 5,
                        "TEXCOORD_0" : 6
                    },
                    "indices" : 7,
                    "material" : 1
                },
                {
                    "attributes" : {
                        "POSITION" : 8,
                        "NORMAL" : 9,
                        "TEXCOORD_0" : 10
                    },
                    "indices" : 11,
                    "material" : 2
                }
            ]
        }
    ],
    "accessors" : [
        {
            "bufferView" : 0,
            "componentType" : 5126,
            "count" : 6438,
            "max" : [
                0.2899520993232727,
                0.168287456035614,
                0.4049725830554962
            ],
            "min" : [
                -0.2615104019641876,
                0.03199216350913048,
                -0.4049728512763977
            ],
            "type" : "VEC3"
        },
        {
            "bufferView" : 1,
            "componentType" : 5126,
            "count" : 6438,
            "type" : "VEC3"
        },
        {
            "bufferView" : 2,
            "componentType" : 5126,
            "count" : 6438,
            "type" : "VEC2"
        },
        {
            "bufferView" : 3,
            "componentType" : 5123,
            "count" : 33648,
            "type" : "SCALAR"
        },
        {
            "bufferView" : 4,
            "componentType" : 5126,
            "count" : 1318,
            "max" : [
                0.10000298917293549,
                0.1776622086763382,
                0.2516120970249176
            ],
            "min" : [
                -0.11634013056755066,
                0.008510028012096882,
                0.05483677610754967
            ],
            "type" : "VEC3"
        },
        {
            "bufferView" : 5,
            "componentType" : 5126,
            "count" : 1318,
            "type" : "VEC3"
        },
        {
            "bufferView" : 6,
            "componentType" : 5126,
            "count" : 1318,
            "type" : "VEC2"
        },
        {
            "bufferView" : 7,
            "componentType" : 5123,
            "count" : 7632,
            "type" : "SCALAR"
        },
        {
            "bufferView" : 8,
            "componentType" : 5126,
            "count" : 773,
            "max" : [
                -0.15265591442584991,
                0.17415766417980194,
                0.2812824249267578
            ],
            "min" : [
                -0.2899520993232727,
                0,
                0.10712476074695587
            ],
            "type" : "VEC3"
        },
        {
            "bufferView" : 9,
            "componentType" : 5126,
            "count" : 773,
            "type" : "VEC3"
        },
        {
            "bufferView" : 10,
            "componentType" : 5126,
            "count" : 773,
            "type" : "VEC2"
        },
        {
            "bufferView" : 11,
            "componentType" : 5123,
            "count" : 4188,
            "type" : "SCALAR"
        }
    ],
    "bufferViews" : [
        {
            "buffer" : 0,
            "byteLength" : 77256,
            "byteOffset" : 0
        },
        {
            "buffer" : 0,
            "byteLength" : 77256,
            "byteOffset" : 77256
        },
        {
            "buffer" : 0,
            "byteLength" : 51504,
            "byteOffset" : 154512
        },
        {
            "buffer" : 0,
            "byteLength" : 67296,
            "byteOffset" : 206016
        },
        {
            "buffer" : 0,
            "byteLength" : 15816,
            "byteOffset" : 273312
        },
        {
            "buffer" : 0,
            "byteLength" : 15816,
            "byteOffset" : 289128
        },
        {
            "buffer" : 0,
            "byteLength" : 10544,
            "byteOffset" : 304944
        },
        {
            "buffer" : 0,
            "byteLength" : 15264,
            "byteOffset" : 315488
        },
        {
            "buffer" : 0,
            "byteLength" : 9276,
            "byteOffset" : 330752
        },
        {
            "buffer" : 0,
            "byteLength" : 9276,
            "byteOffset" : 340028
        },
        {
            "buffer" : 0,
            "byteLength" : 6184,
            "byteOffset" : 349304
        },
        {
            "buffer" : 0,
            "byteLength" : 8376,
            "byteOffset" : 355488
        }
    ],
    "buffers" : [
        {
            "byteLength" : 363864,
            "uri" : "data:application/octet-stream;base64,"
        }
    ]
}
