{
    "asset" : {
        "generator" : "Khronos glTF Blender I/O v1.8.19",
        "version" : "2.0"
    },
    "scene" : 0,
    "scenes" : [
        {
            "name" : "Scene",
            "nodes" : [
                0
            ]
        }
    ],
    "nodes" : [
        {
            "mesh" : 0,
            "name" : "\u6d88\u9632_\u706d\u706b\u566808"
        }
    ],
    "materials" : [
        {
            "doubleSided" : true,
            "name" : "Mat3d66-1212348-33-5065.001",
            "pbrMetallicRoughness" : {
                "baseColorTexture" : {
                    "index" : 0
                },
                "metallicFactor" : 0,
                "roughnessFactor" : 0.5944882035255432
            }
        },
        {
            "doubleSided" : true,
            "name" : "blinn12.019",
            "pbrMetallicRoughness" : {
                "baseColorFactor" : [
                    0,
                    0,
                    0,
                    1
                ],
                "metallicFactor" : 0,
                "roughnessFactor" : 0.6968504190444946
            }
        },
        {
            "doubleSided" : true,
            "name" : "lambert5.006",
            "pbrMetallicRoughness" : {
                "baseColorTexture" : {
                    "index" : 1
                },
                "metallicFactor" : 0,
                "roughnessFactor" : 0.5
            }
        },
        {
            "doubleSided" : true,
            "name" : "blinn12.020",
            "pbrMetallicRoughness" : {
                "baseColorFactor" : [
                    0,
                    0,
                    0,
                    1
                ],
                "metallicFactor" : 0,
                "roughnessFactor" : 0.7283464670181274
            }
        },
        {
            "doubleSided" : true,
            "name" : "lambert4.002",
            "pbrMetallicRoughness" : {
                "baseColorTexture" : {
                    "index" : 2
                },
                "metallicFactor" : 0,
                "roughnessFactor" : 0.5
            }
        },
        {
            "doubleSided" : true,
            "name" : "blinn13.004",
            "pbrMetallicRoughness" : {
                "baseColorFactor" : [
                    0.800000011920929,
                    0.5384929776191711,
                    0.27341800928115845,
                    1
                ],
                "metallicFactor" : 0,
                "roughnessFactor" : 0.5
            }
        },
        {
            "doubleSided" : true,
            "name" : "blinn2.010",
            "pbrMetallicRoughness" : {
                "baseColorFactor" : [
                    0.4000000059604645,
                    0.4000000059604645,
                    0.4000000059604645,
                    1
                ],
                "metallicFactor" : 0,
                "roughnessFactor" : 0.5
            }
        },
        {
            "doubleSided" : true,
            "name" : "blinn6.003",
            "pbrMetallicRoughness" : {
                "baseColorFactor" : [
                    0,
                    0.01600700058043003,
                    0.800000011920929,
                    1
                ],
                "metallicFactor" : 0,
                "roughnessFactor" : 0.6708661913871765
            }
        },
        {
            "doubleSided" : true,
            "name" : "blinn12.021",
            "pbrMetallicRoughness" : {
                "baseColorFactor" : [
                    0,
                    0,
                    0,
                    1
                ],
                "metallicFactor" : 0,
                "roughnessFactor" : 0.7047244310379028
            }
        }
    ],
    "meshes" : [
        {
            "name" : "Obj3d66-1212348-15-540",
            "primitives" : [
                {
                    "attributes" : {
                        "POSITION" : 0,
                        "NORMAL" : 1,
                        "TEXCOORD_0" : 2
                    },
                    "indices" : 3,
                    "material" : 0
                },
                {
                    "attributes" : {
                        "POSITION" : 4,
                        "NORMAL" : 5,
                        "TEXCOORD_0" : 6
                    },
                    "indices" : 7,
                    "material" : 1
                },
                {
                    "attributes" : {
                        "POSITION" : 8,
                        "NORMAL" : 9,
                        "TEXCOORD_0" : 10
                    },
                    "indices" : 11,
                    "material" : 2
                },
                {
                    "attributes" : {
                        "POSITION" : 12,
                        "NORMAL" : 13,
                        "TEXCOORD_0" : 14
                    },
                    "indices" : 15,
                    "material" : 3
                },
                {
                    "attributes" : {
                        "POSITION" : 16,
                        "NORMAL" : 17,
                        "TEXCOORD_0" : 18
                    },
                    "indices" : 19,
                    "material" : 4
                },
                {
                    "attributes" : {
                        "POSITION" : 20,
                        "NORMAL" : 21,
                        "TEXCOORD_0" : 22
                    },
                    "indices" : 23,
                    "material" : 5
                },
                {
                    "attributes" : {
                        "POSITION" : 24,
                        "NORMAL" : 25,
                        "TEXCOORD_0" : 26
                    },
                    "indices" : 27,
                    "material" : 6
                },
                {
                    "attributes" : {
                        "POSITION" : 28,
                        "NORMAL" : 29,
                        "TEXCOORD_0" : 30
                    },
                    "indices" : 31,
                    "material" : 7
                },
                {
                    "attributes" : {
                        "POSITION" : 32,
                        "NORMAL" : 33,
                        "TEXCOORD_0" : 34
                    },
                    "indices" : 35,
                    "material" : 8
                }
            ]
        }
    ],
    "textures" : [
        {
            "sampler" : 0,
            "source" : 0
        },
        {
            "sampler" : 0,
            "source" : 1
        },
        {
            "sampler" : 0,
            "source" : 2
        }
    ],
    "images" : [
        {
            "bufferView" : 4,
            "mimeType" : "image/jpeg",
            "name" : "Image_0"
        },
        {
            "bufferView" : 13,
            "mimeType" : "image/jpeg",
            "name" : "Image_1"
        },
        {
            "bufferView" : 22,
            "mimeType" : "image/jpeg",
            "name" : "Image_2"
        }
    ],
    "accessors" : [
        {
            "bufferView" : 0,
            "componentType" : 5126,
            "count" : 1096,
            "max" : [
                0.16916590929031372,
                0.49414771795272827,
                0.2947964668273926
            ],
            "min" : [
                -0.16916590929031372,
                0.11091350764036179,
                -0.2947964668273926
            ],
            "type" : "VEC3"
        },
        {
            "bufferView" : 1,
            "componentType" : 5126,
            "count" : 1096,
            "type" : "VEC3"
        },
        {
            "bufferView" : 2,
            "componentType" : 5126,
            "count" : 1096,
            "type" : "VEC2"
        },
        {
            "bufferView" : 3,
            "componentType" : 5123,
            "count" : 2796,
            "type" : "SCALAR"
        },
        {
            "bufferView" : 5,
            "componentType" : 5126,
            "count" : 96,
            "max" : [
                0.16879643499851227,
                0.11240372061729431,
                0.2947964668273926
            ],
            "min" : [
                -0.16879643499851227,
                0,
                -0.2947964668273926
            ],
            "type" : "VEC3"
        },
        {
            "bufferView" : 6,
            "componentType" : 5126,
            "count" : 96,
            "type" : "VEC3"
        },
        {
            "bufferView" : 7,
            "componentType" : 5126,
            "count" : 96,
            "type" : "VEC2"
        },
        {
            "bufferView" : 8,
            "componentType" : 5123,
            "count" : 120,
            "type" : "SCALAR"
        },
        {
            "bufferView" : 9,
            "componentType" : 5126,
            "count" : 434,
            "max" : [
                0.006428119260817766,
                0.6994579434394836,
                0.1290745586156845
            ],
            "min" : [
                -0.02919684909284115,
                0.6597024202346802,
                -0.1380709856748581
            ],
            "type" : "VEC3"
        },
        {
            "bufferView" : 10,
            "componentType" : 5126,
            "count" : 434,
            "type" : "VEC3"
        },
        {
            "bufferView" : 11,
            "componentType" : 5126,
            "count" : 434,
            "type" : "VEC2"
        },
        {
            "bufferView" : 12,
            "componentType" : 5123,
            "count" : 1512,
            "type" : "SCALAR"
        },
        {
            "bufferView" : 14,
            "componentType" : 5126,
            "count" : 7405,
            "max" : [
                0.04704013466835022,
                0.7259262204170227,
                0.2786960303783417
            ],
            "min" : [
                -0.09320864826440811,
                0.6309571266174316,
                -0.1499265730381012
            ],
            "type" : "VEC3"
        },
        {
            "bufferView" : 15,
            "componentType" : 5126,
            "count" : 7405,
            "type" : "VEC3"
        },
        {
            "bufferView" : 16,
            "componentType" : 5126,
            "count" : 7405,
            "type" : "VEC2"
        },
        {
            "bufferView" : 17,
            "componentType" : 5123,
            "count" : 31584,
            "type" : "SCALAR"
        },
        {
            "bufferView" : 18,
            "componentType" : 5126,
            "count" : 3618,
            "max" : [
                0.08557320386171341,
                0.6441384553909302,
                0.20660711824893951
            ],
            "min" : [
                -0.07641714811325073,
                0.1133207231760025,
                -0.18673238158226013
            ],
            "type" : "VEC3"
        },
        {
            "bufferView" : 19,
            "componentType" : 5126,
            "count" : 3618,
            "type" : "VEC3"
        },
        {
            "bufferView" : 20,
            "componentType" : 5126,
            "count" : 3618,
            "type" : "VEC2"
        },
        {
            "bufferView" : 21,
            "componentType" : 5123,
            "count" : 18000,
            "type" : "SCALAR"
        },
        {
            "bufferView" : 23,
            "componentType" : 5126,
            "count" : 994,
            "max" : [
                0.02720225416123867,
                0.6579250693321228,
                0.1482280045747757
            ],
            "min" : [
                -0.017936991527676582,
                0.6463961005210876,
                -0.12825225293636322
            ],
            "type" : "VEC3"
        },
        {
            "bufferView" : 24,
            "componentType" : 5126,
            "count" : 994,
            "type" : "VEC3"
        },
        {
            "bufferView" : 25,
            "componentType" : 5126,
            "count" : 994,
            "type" : "VEC2"
        },
        {
            "bufferView" : 26,
            "componentType" : 5123,
            "count" : 1680,
            "type" : "SCALAR"
        },
        {
            "bufferView" : 27,
            "componentType" : 5126,
            "count" : 284,
            "max" : [
                0.06680772453546524,
                0.6788691282272339,
                0.10755883902311325
            ],
            "min" : [
                -0.008809973485767841,
                0.25385749340057373,
                -0.20966525375843048
            ],
            "type" : "VEC3"
        },
        {
            "bufferView" : 28,
            "componentType" : 5126,
            "count" : 284,
            "type" : "VEC3"
        },
        {
            "bufferView" : 29,
            "componentType" : 5126,
            "count" : 284,
            "type" : "VEC2"
        },
        {
            "bufferView" : 30,
            "componentType" : 5123,
            "count" : 960,
            "type" : "SCALAR"
        },
        {
            "bufferView" : 31,
            "componentType" : 5126,
            "count" : 624,
            "max" : [
                0.07820397615432739,
                0.255606085062027,
                0.06699034571647644
            ],
            "min" : [
                -0.017398977652192116,
                0.1962517350912094,
                -0.2234807312488556
            ],
            "type" : "VEC3"
        },
        {
            "bufferView" : 32,
            "componentType" : 5126,
            "count" : 624,
            "type" : "VEC3"
        },
        {
            "bufferView" : 33,
            "componentType" : 5126,
            "count" : 624,
            "type" : "VEC2"
        },
        {
            "bufferView" : 34,
            "componentType" : 5123,
            "count" : 2040,
            "type" : "SCALAR"
        },
        {
            "bufferView" : 35,
            "componentType" : 5126,
            "count" : 920,
            "max" : [
                0.08774197846651077,
                0.6756506562232971,
                0.07328064739704132
            ],
            "min" : [
                -0.008809973485767841,
                0.3156523108482361,
                -0.2485847771167755
            ],
            "type" : "VEC3"
        },
        {
            "bufferView" : 36,
            "componentType" : 5126,
            "count" : 920,
            "type" : "VEC3"
        },
        {
            "bufferView" : 37,
            "componentType" : 5126,
            "count" : 920,
            "type" : "VEC2"
        },
        {
            "bufferView" : 38,
            "componentType" : 5123,
            "count" : 5280,
            "type" : "SCALAR"
        }
    ],
    "bufferViews" : [
        {
            "buffer" : 0,
            "byteLength" : 13152,
            "byteOffset" : 0
        },
        {
            "buffer" : 0,
            "byteLength" : 13152,
            "byteOffset" : 13152
        },
        {
            "buffer" : 0,
            "byteLength" : 8768,
            "byteOffset" : 26304
        },
        {
            "buffer" : 0,
            "byteLength" : 5592,
            "byteOffset" : 35072
        },
        {
            "buffer" : 0,
            "byteLength" : 167910,
            "byteOffset" : 40664
        },
        {
            "buffer" : 0,
            "byteLength" : 1152,
            "byteOffset" : 208576
        },
        {
            "buffer" : 0,
            "byteLength" : 1152,
            "byteOffset" : 209728
        },
        {
            "buffer" : 0,
            "byteLength" : 768,
            "byteOffset" : 210880
        },
        {
            "buffer" : 0,
            "byteLength" : 240,
            "byteOffset" : 211648
        },
        {
            "buffer" : 0,
            "byteLength" : 5208,
            "byteOffset" : 211888
        },
        {
            "buffer" : 0,
            "byteLength" : 5208,
            "byteOffset" : 217096
        },
        {
            "buffer" : 0,
            "byteLength" : 3472,
            "byteOffset" : 222304
        },
        {
            "buffer" : 0,
            "byteLength" : 3024,
            "byteOffset" : 225776
        },
        {
            "buffer" : 0,
            "byteLength" : 101483,
            "byteOffset" : 228800
        },
        {
            "buffer" : 0,
            "byteLength" : 88860,
            "byteOffset" : 330284
        },
        {
            "buffer" : 0,
            "byteLength" : 88860,
            "byteOffset" : 419144
        },
        {
            "buffer" : 0,
            "byteLength" : 59240,
            "byteOffset" : 508004
        },
        {
            "buffer" : 0,
            "byteLength" : 63168,
            "byteOffset" : 567244
        },
        {
            "buffer" : 0,
            "byteLength" : 43416,
            "byteOffset" : 630412
        },
        {
            "buffer" : 0,
            "byteLength" : 43416,
            "byteOffset" : 673828
        },
        {
            "buffer" : 0,
            "byteLength" : 28944,
            "byteOffset" : 717244
        },
        {
            "buffer" : 0,
            "byteLength" : 36000,
            "byteOffset" : 746188
        },
        {
            "buffer" : 0,
            "byteLength" : 143555,
            "byteOffset" : 782188
        },
        {
            "buffer" : 0,
            "byteLength" : 11928,
            "byteOffset" : 925744
        },
        {
            "buffer" : 0,
            "byteLength" : 11928,
            "byteOffset" : 937672
        },
        {
            "buffer" : 0,
            "byteLength" : 7952,
            "byteOffset" : 949600
        },
        {
            "buffer" : 0,
            "byteLength" : 3360,
            "byteOffset" : 957552
        },
        {
            "buffer" : 0,
            "byteLength" : 3408,
            "byteOffset" : 960912
        },
        {
            "buffer" : 0,
            "byteLength" : 3408,
            "byteOffset" : 964320
        },
        {
            "buffer" : 0,
            "byteLength" : 2272,
            "byteOffset" : 967728
        },
        {
            "buffer" : 0,
            "byteLength" : 1920,
            "byteOffset" : 970000
        },
        {
            "buffer" : 0,
            "byteLength" : 7488,
            "byteOffset" : 971920
        },
        {
            "buffer" : 0,
            "byteLength" : 7488,
            "byteOffset" : 979408
        },
        {
            "buffer" : 0,
            "byteLength" : 4992,
            "byteOffset" : 986896
        },
        {
            "buffer" : 0,
            "byteLength" : 4080,
            "byteOffset" : 991888
        },
        {
            "buffer" : 0,
            "byteLength" : 11040,
            "byteOffset" : 995968
        },
        {
            "buffer" : 0,
            "byteLength" : 11040,
            "byteOffset" : 1007008
        },
        {
            "buffer" : 0,
            "byteLength" : 7360,
            "byteOffset" : 1018048
        },
        {
            "buffer" : 0,
            "byteLength" : 10560,
            "byteOffset" : 1025408
        }
    ],
    "samplers" : [
        {
            "magFilter" : 9729,
            "minFilter" : 9987
        }
    ],
    "buffers" : [
        {
            "byteLength" : 1035968,
            "uri" : "data:application/octet-stream;base64,"
        }
    ]
}
