{
    "asset" : {
        "generator" : "Khronos glTF Blender I/O v1.8.19",
        "version" : "2.0"
    },
    "scene" : 0,
    "scenes" : [
        {
            "name" : "Scene",
            "nodes" : [
                0
            ]
        }
    ],
    "nodes" : [
        {
            "mesh" : 0,
            "name" : "\u51b7\u5374\u585407"
        }
    ],
    "materials" : [
        {
            "doubleSided" : true,
            "name" : "Mat3d66-4338366-2-9922.003",
            "pbrMetallicRoughness" : {
                "baseColorFactor" : [
                    0.8431370258331299,
                    0.8431370258331299,
                    0.8431370258331299,
                    1
                ],
                "metallicFactor" : 0,
                "roughnessFactor" : 0.7047244310379028
            }
        },
        {
            "doubleSided" : true,
            "name" : "Mat3d66-4338366-9-8714.003",
            "pbrMetallicRoughness" : {
                "baseColorTexture" : {
                    "index" : 0
                },
                "metallicFactor" : 0,
                "roughnessFactor" : 0.7362204790115356
            }
        },
        {
            "doubleSided" : true,
            "name" : "Mat3d66-4338366-13-7494",
            "pbrMetallicRoughness" : {
                "baseColorTexture" : {
                    "index" : 1
                },
                "metallicFactor" : 0,
                "roughnessFactor" : 0.7755905389785767
            }
        },
        {
            "doubleSided" : true,
            "name" : "Mat3d66-4338366-12-660",
            "pbrMetallicRoughness" : {
                "metallicFactor" : 0,
                "roughnessFactor" : 0.8385826349258423
            }
        },
        {
            "doubleSided" : true,
            "name" : "Mat3d66-4338366-22-8113.003",
            "pbrMetallicRoughness" : {
                "baseColorFactor" : [
                    0.3058820068836212,
                    0.36470600962638855,
                    0.4235289990901947,
                    1
                ],
                "metallicFactor" : 0,
                "roughnessFactor" : 0.7440944910049438
            }
        },
        {
            "doubleSided" : true,
            "name" : "Mat3d66-4338366-1-1724",
            "pbrMetallicRoughness" : {
                "baseColorFactor" : [
                    0,
                    0,
                    0,
                    1
                ],
                "metallicFactor" : 0,
                "roughnessFactor" : 0.7362204790115356
            }
        }
    ],
    "meshes" : [
        {
            "name" : "Obj3d66-4338366-17-233",
            "primitives" : [
                {
                    "attributes" : {
                        "POSITION" : 0,
                        "NORMAL" : 1,
                        "TEXCOORD_0" : 2
                    },
                    "indices" : 3,
                    "material" : 0
                },
                {
                    "attributes" : {
                        "POSITION" : 4,
                        "NORMAL" : 5,
                        "TEXCOORD_0" : 6
                    },
                    "indices" : 7,
                    "material" : 1
                },
                {
                    "attributes" : {
                        "POSITION" : 8,
                        "NORMAL" : 9,
                        "TEXCOORD_0" : 10
                    },
                    "indices" : 11,
                    "material" : 2
                },
                {
                    "attributes" : {
                        "POSITION" : 12,
                        "NORMAL" : 13,
                        "TEXCOORD_0" : 14
                    },
                    "indices" : 15,
                    "material" : 3
                },
                {
                    "attributes" : {
                        "POSITION" : 16,
                        "NORMAL" : 17,
                        "TEXCOORD_0" : 18
                    },
                    "indices" : 19,
                    "material" : 4
                },
                {
                    "attributes" : {
                        "POSITION" : 20,
                        "NORMAL" : 21,
                        "TEXCOORD_0" : 22
                    },
                    "indices" : 23,
                    "material" : 5
                }
            ]
        }
    ],
    "textures" : [
        {
            "sampler" : 0,
            "source" : 0
        },
        {
            "sampler" : 0,
            "source" : 1
        }
    ],
    "images" : [
        {
            "bufferView" : 8,
            "mimeType" : "image/jpeg",
            "name" : "Image_0"
        },
        {
            "bufferView" : 13,
            "mimeType" : "image/jpeg",
            "name" : "Image_1"
        }
    ],
    "accessors" : [
        {
            "bufferView" : 0,
            "componentType" : 5126,
            "count" : 10755,
            "max" : [
                33.26044845581055,
                57.21466827392578,
                18.193872451782227
            ],
            "min" : [
                -33.209991455078125,
                3.3598787784576416,
                -18.167360305786133
            ],
            "type" : "VEC3"
        },
        {
            "bufferView" : 1,
            "componentType" : 5126,
            "count" : 10755,
            "type" : "VEC3"
        },
        {
            "bufferView" : 2,
            "componentType" : 5126,
            "count" : 10755,
            "type" : "VEC2"
        },
        {
            "bufferView" : 3,
            "componentType" : 5123,
            "count" : 13191,
            "type" : "SCALAR"
        },
        {
            "bufferView" : 4,
            "componentType" : 5126,
            "count" : 832,
            "max" : [
                33.189327239990234,
                57.21466827392578,
                18.193872451782227
            ],
            "min" : [
                -33.13883590698242,
                45.830970764160156,
                -17.55813217163086
            ],
            "type" : "VEC3"
        },
        {
            "bufferView" : 5,
            "componentType" : 5126,
            "count" : 832,
            "type" : "VEC3"
        },
        {
            "bufferView" : 6,
            "componentType" : 5126,
            "count" : 832,
            "type" : "VEC2"
        },
        {
            "bufferView" : 7,
            "componentType" : 5123,
            "count" : 1080,
            "type" : "SCALAR"
        },
        {
            "bufferView" : 9,
            "componentType" : 5126,
            "count" : 764,
            "max" : [
                33.06770706176758,
                43.449440002441406,
                17.965354919433594
            ],
            "min" : [
                -33.01726150512695,
                4.749640941619873,
                -18.167360305786133
            ],
            "type" : "VEC3"
        },
        {
            "bufferView" : 10,
            "componentType" : 5126,
            "count" : 764,
            "type" : "VEC3"
        },
        {
            "bufferView" : 11,
            "componentType" : 5126,
            "count" : 764,
            "type" : "VEC2"
        },
        {
            "bufferView" : 12,
            "componentType" : 5123,
            "count" : 1008,
            "type" : "SCALAR"
        },
        {
            "bufferView" : 14,
            "componentType" : 5126,
            "count" : 48,
            "max" : [
                33.06770706176758,
                25.2420711517334,
                17.965354919433594
            ],
            "min" : [
                -33.01726150512695,
                22.95701026916504,
                17.794918060302734
            ],
            "type" : "VEC3"
        },
        {
            "bufferView" : 15,
            "componentType" : 5126,
            "count" : 48,
            "type" : "VEC3"
        },
        {
            "bufferView" : 16,
            "componentType" : 5126,
            "count" : 48,
            "type" : "VEC2"
        },
        {
            "bufferView" : 17,
            "componentType" : 5123,
            "count" : 72,
            "type" : "SCALAR"
        },
        {
            "bufferView" : 18,
            "componentType" : 5126,
            "count" : 2222,
            "max" : [
                33.06770706176758,
                42.48432159423828,
                19.227903366088867
            ],
            "min" : [
                -33.26044845581055,
                0,
                -19.227914810180664
            ],
            "type" : "VEC3"
        },
        {
            "bufferView" : 19,
            "componentType" : 5126,
            "count" : 2222,
            "type" : "VEC3"
        },
        {
            "bufferView" : 20,
            "componentType" : 5126,
            "count" : 2222,
            "type" : "VEC2"
        },
        {
            "bufferView" : 21,
            "componentType" : 5123,
            "count" : 2364,
            "type" : "SCALAR"
        },
        {
            "bufferView" : 22,
            "componentType" : 5126,
            "count" : 3115,
            "max" : [
                15.451940536499023,
                55.24990463256836,
                15.80367374420166
            ],
            "min" : [
                -14.710700988769531,
                54.118682861328125,
                -15.461538314819336
            ],
            "type" : "VEC3"
        },
        {
            "bufferView" : 23,
            "componentType" : 5126,
            "count" : 3115,
            "type" : "VEC3"
        },
        {
            "bufferView" : 24,
            "componentType" : 5126,
            "count" : 3115,
            "type" : "VEC2"
        },
        {
            "bufferView" : 25,
            "componentType" : 5123,
            "count" : 3198,
            "type" : "SCALAR"
        }
    ],
    "bufferViews" : [
        {
            "buffer" : 0,
            "byteLength" : 129060,
            "byteOffset" : 0
        },
        {
            "buffer" : 0,
            "byteLength" : 129060,
            "byteOffset" : 129060
        },
        {
            "buffer" : 0,
            "byteLength" : 86040,
            "byteOffset" : 258120
        },
        {
            "buffer" : 0,
            "byteLength" : 26382,
            "byteOffset" : 344160
        },
        {
            "buffer" : 0,
            "byteLength" : 9984,
            "byteOffset" : 370544
        },
        {
            "buffer" : 0,
            "byteLength" : 9984,
            "byteOffset" : 380528
        },
        {
            "buffer" : 0,
            "byteLength" : 6656,
            "byteOffset" : 390512
        },
        {
            "buffer" : 0,
            "byteLength" : 2160,
            "byteOffset" : 397168
        },
        {
            "buffer" : 0,
            "byteLength" : 2032,
            "byteOffset" : 399328
        },
        {
            "buffer" : 0,
            "byteLength" : 9168,
            "byteOffset" : 401360
        },
        {
            "buffer" : 0,
            "byteLength" : 9168,
            "byteOffset" : 410528
        },
        {
            "buffer" : 0,
            "byteLength" : 6112,
            "byteOffset" : 419696
        },
        {
            "buffer" : 0,
            "byteLength" : 2016,
            "byteOffset" : 425808
        },
        {
            "buffer" : 0,
            "byteLength" : 4542,
            "byteOffset" : 427824
        },
        {
            "buffer" : 0,
            "byteLength" : 576,
            "byteOffset" : 432368
        },
        {
            "buffer" : 0,
            "byteLength" : 576,
            "byteOffset" : 432944
        },
        {
            "buffer" : 0,
            "byteLength" : 384,
            "byteOffset" : 433520
        },
        {
            "buffer" : 0,
            "byteLength" : 144,
            "byteOffset" : 433904
        },
        {
            "buffer" : 0,
            "byteLength" : 26664,
            "byteOffset" : 434048
        },
        {
            "buffer" : 0,
            "byteLength" : 26664,
            "byteOffset" : 460712
        },
        {
            "buffer" : 0,
            "byteLength" : 17776,
            "byteOffset" : 487376
        },
        {
            "buffer" : 0,
            "byteLength" : 4728,
            "byteOffset" : 505152
        },
        {
            "buffer" : 0,
            "byteLength" : 37380,
            "byteOffset" : 509880
        },
        {
            "buffer" : 0,
            "byteLength" : 37380,
            "byteOffset" : 547260
        },
        {
            "buffer" : 0,
            "byteLength" : 24920,
            "byteOffset" : 584640
        },
        {
            "buffer" : 0,
            "byteLength" : 6396,
            "byteOffset" : 609560
        }
    ],
    "samplers" : [
        {
            "magFilter" : 9729,
            "minFilter" : 9987
        }
    ],
    "buffers" : [
        {
            "byteLength" : 615956,
            "uri" : "data:application/octet-stream;base64,"
        }
    ]
}
